Coordinates
version=1
nRows=31
nColumns=38
inDegrees=no

Units are S.I. units (second, meters, Newtons, ...)
If the header above contains a line with 'inDegrees', this indicates whether rotational values are in degrees (yes) or radians (no).

endheader
time	pelvis_tilt	pelvis_list	pelvis_rotation	pelvis_tx	pelvis_ty	pelvis_tz	hip_flexion_r	hip_adduction_r	hip_rotation_r	knee_angle_r	ankle_angle_r	subtalar_angle_r	mtp_angle_r	hip_flexion_l	hip_adduction_l	hip_rotation_l	knee_angle_l	ankle_angle_l	subtalar_angle_l	mtp_angle_l	lumbar_extension	lumbar_bending	lumbar_rotation	arm_flex_r	arm_add_r	arm_rot_r	elbow_flex_r	pro_sup_r	wrist_flex_r	wrist_dev_r	arm_flex_l	arm_add_l	arm_rot_l	elbow_flex_l	pro_sup_l	wrist_flex_l	wrist_dev_l
1.23	1.38015	1.44783	0.385492	0.659409	1.02269	1.03895	0.193533	0.124668	-0.282449	0.206321	-0.10888	0	0	0.134361	-0.218082	0.159079	1.12652	-0.322649	0	0	-0.133258	0.152718	-0.0638431	-0.108452	-0.256442	0.152798	0.668218	1.5708	0	0	0.0349557	-0.327388	0.564853	0.672529	1.09242	0	0
1.24	1.39782	1.45422	0.363164	0.660507	1.0356	1.04167	0.169296	0.124672	-0.279724	0.19399	-0.112022	0	0	0.15073	-0.210868	0.152916	1.14387	-0.28925	0	0	-0.136762	0.143608	-0.053773	-0.10548	-0.260922	0.158112	0.680766	1.5708	0	0	0.0248181	-0.328394	0.563619	0.669066	1.10094	0	0
1.25	1.40831	1.46104	0.347658	0.661673	1.04846	1.04435	0.145838	0.123599	-0.277521	0.181669	-0.112389	0	0	0.167485	-0.203726	0.14337	1.15466	-0.273395	0	0	-0.138975	0.133259	-0.0451154	-0.101531	-0.264033	0.1621	0.691425	1.5708	0	0	0.0119645	-0.330051	0.557212	0.668187	1.10871	0	0
1.26	1.43314	1.46846	0.315998	0.662917	1.06122	1.04712	0.120628	0.122375	-0.273442	0.168426	-0.117075	0	0	0.180968	-0.197086	0.130807	1.15899	-0.247325	0	0	-0.143194	0.122529	-0.0359463	-0.0964328	-0.268112	0.168702	0.702434	1.5708	0	0	-0.000514259	-0.334888	0.557553	0.67055	1.10566	0	0
1.27	1.46765	1.47565	0.273972	0.664138	1.07386	1.04982	0.095504	0.120897	-0.270299	0.155749	-0.12286	0	0	0.19309	-0.191681	0.11574	1.15734	-0.224936	0	0	-0.148143	0.112046	-0.0269643	-0.090818	-0.273109	0.176291	0.71398	1.5708	0	0	-0.0147962	-0.339086	0.551857	0.674929	1.1032	0	0
1.28	1.51545	1.48197	0.21899	0.665261	1.08628	1.0524	0.0702316	0.119833	-0.268717	0.142596	-0.133958	0	0	0.204671	-0.18969	0.0953752	1.15048	-0.20195	0	0	-0.154363	0.102485	-0.0204652	-0.0812888	-0.287403	0.208167	0.727052	1.5708	0	0	-0.0389431	-0.332745	0.499919	0.680487	1.13772	0	0
1.29	1.54388	1.48743	0.183861	0.666323	1.09856	1.05469	0.0490111	0.118084	-0.272331	0.132549	-0.13851	0	0	0.218925	-0.188865	0.072698	1.13946	-0.191821	0	0	-0.157727	0.0937215	-0.0125514	-0.077326	-0.287994	0.19905	0.739591	1.5708	0	0	-0.0526344	-0.336261	0.494561	0.684634	1.12973	0	0
1.3	1.58056	1.49221	0.139153	0.667383	1.1108	1.05684	0.0283802	0.116315	-0.27926	0.124112	-0.144835	0	0	0.231667	-0.190804	0.0431387	1.12404	-0.181651	0	0	-0.161928	0.0856397	-0.00416836	-0.072822	-0.29253	0.198064	0.754252	1.5708	0	0	-0.0672158	-0.338273	0.484537	0.688697	1.12311	0	0
1.31	1.64781	1.4961	0.0621809	0.668478	1.12321	1.05897	0.0052598	0.115241	-0.283277	0.11503	-0.153406	0	0	0.240818	-0.197629	0.000477745	1.10356	-0.172212	0	0	-0.168257	0.0784662	0.00560249	-0.0688869	-0.29789	0.196868	0.77054	1.5708	0	0	-0.0824547	-0.338846	0.470986	0.692772	1.11773	0	0
1.32	1.75231	1.49852	-0.0527215	0.669565	1.13573	1.06105	-0.0207139	0.11493	-0.285591	0.105198	-0.161802	0	0	0.246701	-0.210313	-0.0592686	1.07879	-0.166714	0	0	-0.177123	0.0723319	0.0162431	-0.0657536	-0.3031	0.192841	0.788237	1.5708	0	0	-0.0975484	-0.338702	0.455856	0.697313	1.11325	0	0
1.33	1.88878	1.49913	-0.200269	0.670619	1.14827	1.06309	-0.0488744	0.114701	-0.287363	0.0953914	-0.170301	0	0	0.248282	-0.227574	-0.129252	1.04954	-0.164884	0	0	-0.188496	0.0668576	0.0274526	-0.0632705	-0.307823	0.185422	0.807316	1.5708	0	0	-0.111846	-0.337826	0.440454	0.701499	1.10964	0	0
1.34	1.98349	1.49939	-0.304611	0.671424	1.16062	1.06469	-0.0726604	0.113707	-0.290306	0.0871909	-0.177418	0	0	0.2511	-0.239937	-0.18559	1.01579	-0.162935	0	0	-0.196338	0.0617966	0.0366681	-0.0609346	-0.311544	0.175808	0.825267	1.5708	0	0	-0.124799	-0.336065	0.427754	0.702428	1.10833	0	0
1.35	2.07111	1.49932	-0.401398	0.672028	1.1728	1.06605	-0.0953233	0.112097	-0.292511	0.0793872	-0.189611	0	0	0.252241	-0.246893	-0.230706	0.976485	-0.159935	0	0	-0.204303	0.0567876	0.0442142	-0.0581839	-0.312998	0.161472	0.842514	1.5708	0	0	-0.143707	-0.322851	0.376534	0.701883	1.14332	0	0
1.36	2.11433	1.50038	-0.453403	0.672438	1.18499	1.06687	-0.113465	0.109809	-0.294325	0.0732135	-0.196186	0	0	0.255808	-0.249644	-0.267299	0.933236	-0.156508	0	0	-0.207288	0.0524309	0.0523581	-0.0585455	-0.3123	0.140512	0.85979	1.5708	0	0	-0.150888	-0.326065	0.389624	0.699923	1.11952	0	0
1.37	2.13248	1.50221	-0.479946	0.6728	1.19719	1.06727	-0.129006	0.107377	-0.295297	0.0678328	-0.199311	0	0	0.260232	-0.251192	-0.303021	0.886246	-0.154694	0	0	-0.207791	0.0480736	0.0587135	-0.0574644	-0.312124	0.124091	0.874925	1.5708	0	0	-0.161291	-0.323829	0.384448	0.696588	1.11353	0	0
1.38	2.13884	1.50388	-0.492816	0.673008	1.20917	1.0674	-0.142445	0.105248	-0.298108	0.0652234	-0.198148	0	0	0.265297	-0.250307	-0.332455	0.835629	-0.152611	0	0	-0.207931	0.0445317	0.062062	-0.0536219	-0.314602	0.116553	0.88817	1.5708	0	0	-0.172941	-0.318024	0.367438	0.692195	1.1207	0	0
1.39	2.16886	1.50436	-0.529133	0.673154	1.22103	1.06744	-0.157809	0.103283	-0.299615	0.0624897	-0.200272	0	0	0.266872	-0.247769	-0.359701	0.780531	-0.153076	0	0	-0.210975	0.0414549	0.0662566	-0.051466	-0.313864	0.0998692	0.902945	1.5708	0	0	-0.180351	-0.315966	0.365375	0.68798	1.11471	0	0
1.4	2.18616	1.50468	-0.55247	0.673214	1.2329	1.06716	-0.171785	0.101334	-0.30091	0.0612181	-0.201451	0	0	0.268074	-0.243481	-0.383026	0.721576	-0.155863	0	0	-0.213265	0.0391007	0.0702085	-0.0495196	-0.312801	0.083163	0.917233	1.5708	0	0	-0.186606	-0.313742	0.365137	0.682325	1.1094	0	0
1.41	2.18328	1.5051	-0.55508	0.673165	1.24479	1.06653	-0.18398	0.099567	-0.301906	0.0610957	-0.201827	0	0	0.2696	-0.237215	-0.401938	0.658719	-0.161227	0	0	-0.214115	0.0377225	0.073583	-0.0476907	-0.311739	0.0670776	0.930607	1.5708	0	0	-0.191798	-0.311162	0.366639	0.67521	1.104	0	0
1.42	2.16956	1.50582	-0.54516	0.672885	1.25677	1.06554	-0.195241	0.0981723	-0.302626	0.0614293	-0.200639	0	0	0.271157	-0.228822	-0.416482	0.592658	-0.169979	0	0	-0.213914	0.0369778	0.0754059	-0.0465291	-0.310573	0.0509167	0.943652	1.5708	0	0	-0.195735	-0.308712	0.371173	0.666861	1.09721	0	0
1.43	2.14436	1.50704	-0.522212	0.672344	1.26883	1.06421	-0.205755	0.0969658	-0.302897	0.061379	-0.196195	0	0	0.272814	-0.217401	-0.422314	0.523019	-0.181557	0	0	-0.212585	0.0365436	0.0756124	-0.0457777	-0.307998	0.0329862	0.955661	1.5708	0	0	-0.199862	-0.304506	0.370854	0.657456	1.09716	0	0
1.44	2.08557	1.5088	-0.464446	0.671645	1.28092	1.06241	-0.213563	0.0962189	-0.303637	0.06261	-0.189507	0	0	0.275712	-0.203637	-0.418516	0.450221	-0.186337	0	0	-0.208308	0.037142	0.0764883	-0.0469666	-0.306955	0.0170747	0.96834	1.5708	0	0	-0.19026	-0.321455	0.453266	0.649501	1.0208	0	0
1.45	1.99884	1.51021	-0.378081	0.670812	1.29304	1.06024	-0.219448	0.0959178	-0.303975	0.0652165	-0.183005	0	0	0.278437	-0.188186	-0.404955	0.373781	-0.187677	0	0	-0.203067	0.0384025	0.0751663	-0.0464783	-0.306104	0.00426153	0.978822	1.5708	0	0	-0.190994	-0.319809	0.467993	0.638838	1.00813	0	0
1.46	1.88099	1.51068	-0.260056	0.669928	1.30521	1.05768	-0.223762	0.096709	-0.303431	0.0681094	-0.176602	0	0	0.281048	-0.172525	-0.38355	0.294996	-0.187964	0	0	-0.196052	0.0406447	0.0734457	-0.046411	-0.305601	-0.00717883	0.988476	1.5708	0	0	-0.192021	-0.31698	0.47928	0.627967	0.998045	0	0
1.47	1.73517	1.50957	-0.113343	0.668978	1.3175	1.0547	-0.226514	0.0986847	-0.302738	0.0710332	-0.170284	0	0	0.283912	-0.157817	-0.355251	0.216032	-0.188252	0	0	-0.187019	0.0439505	0.0709965	-0.0469386	-0.305368	-0.0173058	0.997492	1.5708	0	0	-0.193496	-0.313742	0.48881	0.617423	0.989625	0	0
1.48	1.57226	1.50634	0.0513738	0.667912	1.32991	1.05129	-0.227603	0.101701	-0.301707	0.0740615	-0.16246	0	0	0.286556	-0.143846	-0.317456	0.136371	-0.190664	0	0	-0.175776	0.0483099	0.0677373	-0.0482902	-0.30524	-0.0269508	1.00582	1.5708	0	0	-0.194923	-0.310295	0.498434	0.606506	0.981986	0	0
1.49	1.42291	1.50061	0.202743	0.66678	1.34247	1.04755	-0.227538	0.105459	-0.301254	0.0789599	-0.153578	0	0	0.2887	-0.1323	-0.276628	0.0600707	-0.195134	0	0	-0.163522	0.0536129	0.0643167	-0.0505971	-0.305296	-0.0361985	1.01378	1.5708	0	0	-0.197187	-0.306135	0.504423	0.596514	0.97659	0	0
1.5	1.30888	1.49301	0.318509	0.66564	1.35521	1.04366	-0.227193	0.109427	-0.302593	0.0866489	-0.144921	0	0	0.292113	-0.124531	-0.24388	0	-0.196633	0	0	-0.15177	0.0597144	0.0612433	-0.0533928	-0.305303	-0.0451565	1.02129	1.5708	0	0	-0.200026	-0.301107	0.506092	0.587257	0.973741	0	0
1.51	1.25188	1.48636	0.37677	0.664491	1.36806	1.03999	-0.230244	0.112309	-0.303519	0.0947435	-0.141309	0	0	0.300811	-0.120859	-0.240526	0	-0.192459	0	0	-0.144442	0.0650244	0.0584038	-0.0553315	-0.306186	-0.0514166	1.0282	1.5708	0	0	-0.202993	-0.296167	0.503968	0.580279	0.972637	0	0
1.52	1.20844	1.48054	0.421063	0.663289	1.38108	1.0364	-0.231879	0.113126	-0.307592	0.109376	-0.127654	0	0	0.309485	-0.116945	-0.239212	0	-0.168942	0	0	-0.137992	0.0695159	0.0563282	-0.0581837	-0.304381	-0.0624976	1.03412	1.5708	0	0	-0.203694	-0.292157	0.508597	0.572327	0.962702	0	0
1.53	1.20396	1.47775	0.425621	0.662131	1.39422	1.0333	-0.238966	0.112387	-0.307352	0.120657	-0.12583	0	0	0.313673	-0.112003	-0.241406	0	-0.159807	0	0	-0.137009	0.0715621	0.0542797	-0.0587848	-0.30392	-0.0680064	1.0372	1.5708	0	0	-0.205213	-0.288384	0.505675	0.567166	0.961616	0	0
